<?xml version="1.0" encoding="utf-8"?>
<!-- Generator: Adobe Illustrator 16.0.0, SVG Export Plug-In . SVG Version: 6.00 Build 0)  -->
<!DOCTYPE svg PUBLIC "-//W3C//DTD SVG 1.1//EN" "http://www.w3.org/Graphics/SVG/1.1/DTD/svg11.dtd">
<svg version="1.1" id="Layer_1" xmlns="http://www.w3.org/2000/svg" xmlns:xlink="http://www.w3.org/1999/xlink" x="0px" y="0px"
	 width="358.333px" height="78.287px" viewBox="0 0 358.333 78.287" enable-background="new 0 0 358.333 78.287"
	 xml:space="preserve">
<g>
	<path d="M1.474,23.25c-0.053-0.263-0.079-0.539-0.079-0.83c0-0.289,0.184-0.434,0.553-0.434h1.975l8.532,38.157
		c0.316,1.475,0.592,2.779,0.83,3.911c0.237,1.133,0.447,2.2,0.632,3.199c0.184,1.001,0.355,2.002,0.514,3.002
		c0.158,1.001,0.342,2.081,0.553,3.239h0.158c0.263-2.475,0.579-4.727,0.948-6.754c0.368-2.027,0.79-4.227,1.264-6.597l7.11-33.812
		c0.105-0.368,0.198-0.658,0.276-0.869c0.079-0.209,0.277-0.342,0.593-0.395h1.975l7.979,35.076c0.316,1.475,0.592,2.765,0.83,3.871
		c0.237,1.106,0.434,2.16,0.592,3.16c0.158,1.001,0.316,1.988,0.474,2.962c0.158,0.975,0.342,2.042,0.553,3.199h0.237
		c0.263-1.843,0.553-3.883,0.869-6.122c0.316-2.238,0.737-4.595,1.264-7.071l7.742-36.893c0.105-0.421,0.197-0.737,0.276-0.948
		c0.079-0.21,0.302-0.316,0.671-0.316h1.975L38.92,77.918c-0.158,0.052-0.355,0.105-0.592,0.158
		c-0.237,0.052-0.593,0.079-1.066,0.079c-0.264,0-0.514-0.355-0.75-1.066c-0.237-0.711-0.488-1.593-0.751-2.647L28.176,42.29
		l-2.212-12.403c-0.158,0.79-0.343,1.831-0.553,3.121c-0.211,1.291-0.435,2.581-0.672,3.871c-0.237,1.292-0.448,2.437-0.632,3.437
		c-0.185,1.001-0.276,1.607-0.276,1.817l-7.663,35.787c-0.158,0.052-0.383,0.091-0.671,0.119c-0.29,0.026-0.671,0.04-1.146,0.04
		c-0.264,0-0.527-0.422-0.79-1.264c-0.264-0.842-0.553-2.027-0.869-3.555c-0.369-1.685-0.817-3.7-1.343-6.043
		c-0.527-2.343-1.08-4.845-1.659-7.505c-0.58-2.659-1.185-5.411-1.817-8.255c-0.632-2.844-1.264-5.609-1.896-8.295
		C4.555,36.787,3.054,30.151,1.474,23.25z"/>
	<path d="M56.062,20.644c0-0.737,0.158-1.158,0.474-1.264c0.316-0.104,1-0.158,2.054-0.158v21.409
		c1.738-1.316,3.567-2.252,5.491-2.805c1.922-0.553,3.778-0.83,5.569-0.83c2.001,0,3.634,0.25,4.898,0.75
		c1.264,0.501,2.251,1.225,2.962,2.172c0.711,0.948,1.198,2.082,1.462,3.397c0.263,1.317,0.395,2.792,0.395,4.424v28.677
		c0,0.422-0.119,0.672-0.356,0.75c-0.237,0.079-0.987,0.119-2.251,0.119v-29.23c0-1.264-0.106-2.422-0.316-3.476
		c-0.211-1.053-0.606-1.961-1.185-2.726c-0.58-0.763-1.37-1.343-2.37-1.738c-1.001-0.395-2.291-0.593-3.871-0.593
		c-1.528,0-3.252,0.304-5.175,0.909c-1.923,0.606-3.673,1.672-5.253,3.2v32.785c0,0.422-0.106,0.672-0.316,0.75
		c-0.211,0.079-0.948,0.119-2.212,0.119V20.644z"/>
	<path d="M86.792,40.157c0-0.632,0.158-1.053,0.474-1.264c0.895-0.421,2.501-0.842,4.819-1.264c2.317-0.421,4.898-0.632,7.742-0.632
		c3.002,0,5.305,0.699,6.913,2.094c1.606,1.396,2.409,3.884,2.409,7.465v5.056c0,4.53-0.039,8.796-0.118,12.798
		c-0.079,4.003-0.172,7.584-0.277,10.744c-0.369,0.211-0.843,0.487-1.422,0.829c-0.58,0.343-1.303,0.672-2.172,0.988
		s-1.87,0.579-3.002,0.79c-1.133,0.21-2.437,0.316-3.911,0.316c-1.422,0.052-2.818-0.027-4.187-0.237
		c-1.37-0.211-2.595-0.711-3.673-1.501c-1.08-0.79-1.949-1.948-2.607-3.476c-0.659-1.527-0.988-3.634-0.988-6.32
		c0-2.791,0.368-5.029,1.106-6.715c0.737-1.685,1.711-2.975,2.923-3.871c1.211-0.895,2.58-1.487,4.108-1.777
		c1.527-0.289,3.081-0.435,4.661-0.435c1.264,0,2.514,0.066,3.752,0.197c1.237,0.132,2.331,0.33,3.278,0.593V47.03
		c0-1.58-0.185-2.856-0.553-3.832c-0.369-0.974-0.883-1.738-1.541-2.291c-0.659-0.553-1.449-0.921-2.37-1.106
		c-0.922-0.184-1.91-0.277-2.962-0.277c-2.844,0-5.32,0.225-7.426,0.672c-2.107,0.448-3.634,0.908-4.582,1.382
		C86.923,41.104,86.792,40.631,86.792,40.157z M106.621,56.747c-0.948-0.263-2.015-0.46-3.2-0.592
		c-1.185-0.131-2.226-0.198-3.12-0.198c-1.37,0-2.713,0.093-4.029,0.276c-1.317,0.186-2.476,0.632-3.476,1.343
		c-1.001,0.711-1.804,1.765-2.409,3.16c-0.606,1.396-0.909,3.306-0.909,5.727c0,2.212,0.263,3.938,0.79,5.175
		c0.526,1.238,1.225,2.16,2.094,2.765c0.869,0.606,1.856,0.961,2.962,1.066c1.106,0.106,2.264,0.158,3.476,0.158
		c1.685,0,3.199-0.237,4.542-0.711c1.343-0.474,2.277-0.948,2.804-1.422c0.158-2.001,0.277-4.555,0.355-7.663
		C106.582,62.725,106.621,59.697,106.621,56.747z"/>
	<path d="M120.129,40.236h-6.399c0-1.053,0.04-1.725,0.119-2.015c0.079-0.289,0.302-0.435,0.671-0.435h5.609V24.91
		c0-0.684,0.145-1.079,0.435-1.185c0.289-0.105,1.014-0.158,2.172-0.158v14.22h10.665c0,1.106-0.027,1.791-0.079,2.054
		c-0.053,0.264-0.237,0.395-0.553,0.395h-10.033v25.359c0,1.422,0.026,2.752,0.079,3.989c0.052,1.238,0.224,2.305,0.514,3.2
		c0.289,0.896,0.711,1.594,1.264,2.093c0.553,0.501,1.355,0.75,2.409,0.75c1.264,0,2.264-0.131,3.002-0.395
		c0.737-0.263,1.553-0.604,2.449-1.027c0.21,0.422,0.316,0.922,0.316,1.501c0,0.738-0.62,1.317-1.856,1.738
		c-1.238,0.421-2.674,0.632-4.306,0.632c-1.58,0-2.804-0.316-3.673-0.948c-0.869-0.632-1.515-1.527-1.936-2.686
		c-0.422-1.158-0.671-2.5-0.75-4.029c-0.079-1.527-0.119-3.212-0.119-5.056V40.236z"/>
	<path d="M151.808,36.997c1.738,0,3.239,0.146,4.503,0.435c1.264,0.29,2.317,0.62,3.16,0.987c0.842,0.369,1.474,0.764,1.896,1.185
		c0.421,0.422,0.632,0.738,0.632,0.948c0,0.474-0.264,1.054-0.79,1.738c-1.422-0.948-2.857-1.659-4.306-2.133
		c-1.449-0.474-3.12-0.711-5.016-0.711c-1.422,0-2.739,0.132-3.95,0.395c-1.212,0.264-2.279,0.659-3.199,1.185
		c-0.922,0.527-1.647,1.173-2.173,1.936c-0.527,0.764-0.79,1.647-0.79,2.646c0,1.106,0.289,2.133,0.869,3.081
		c0.579,0.948,1.79,2.002,3.634,3.16l9.638,6.083c1.948,1.422,3.409,2.911,4.385,4.463c0.974,1.554,1.461,3.332,1.461,5.333
		c0,3.476-1.12,6.071-3.357,7.782c-2.239,1.712-5.386,2.567-9.441,2.567c-3.266,0-5.78-0.316-7.544-0.948
		c-1.765-0.632-2.646-1.29-2.646-1.975c0-0.316,0.04-0.632,0.119-0.948s0.276-0.605,0.592-0.869c1.211,0.79,2.515,1.357,3.911,1.699
		c1.395,0.343,3.2,0.514,5.412,0.514c3.107,0,5.595-0.565,7.465-1.699c1.869-1.132,2.805-2.962,2.805-5.49
		c0-1.843-0.448-3.463-1.343-4.859c-0.896-1.395-2.265-2.751-4.108-4.068l-8.848-5.451c-1.212-0.737-2.199-1.448-2.962-2.133
		c-0.764-0.684-1.356-1.355-1.777-2.015c-0.422-0.658-0.699-1.316-0.83-1.975c-0.132-0.658-0.197-1.382-0.197-2.172
		c0-1.369,0.316-2.593,0.948-3.673c0.632-1.079,1.527-1.987,2.686-2.726c1.158-0.737,2.515-1.304,4.068-1.698
		C148.266,37.194,149.964,36.997,151.808,36.997z"/>
</g>
<g>
	<path fill="#ED1C24" d="M213.063,78.287V47.374h-20.389v30.913h-19.184V0.238h19.184v30.036h20.389V0.238h19.184v78.049H213.063z"
		/>
	<path fill="#ED1C24" d="M290.454,70.175c-5.7,5.7-12.277,8.77-21.814,8.77s-16.114-3.069-21.814-8.77
		c-8.221-8.221-7.893-19.183-7.893-30.913s-0.328-22.691,7.893-30.913c5.7-5.7,12.277-8.77,21.814-8.77s16.114,3.069,21.814,8.77
		c8.221,8.221,7.893,19.183,7.893,30.913S298.674,61.954,290.454,70.175z M276.313,20.079c-1.426-1.863-4.166-3.398-7.674-3.398
		s-6.248,1.535-7.674,3.398c-1.754,2.302-2.85,4.933-2.85,19.184s1.096,16.771,2.85,19.074c1.426,1.864,4.166,3.508,7.674,3.508
		s6.248-1.644,7.674-3.508c1.754-2.302,2.85-4.823,2.85-19.074S278.067,22.381,276.313,20.079z"/>
	<path fill="#ED1C24" d="M338.795,17.338v60.948h-19.184V17.338h-19.184V0.238h57.551v17.101H338.795z"/>
</g>
<g opacity="0.1">
	<defs>
		<rect id="SVGID_1_" x="169.667" y="-95.172" opacity="0.1" width="286" height="133.333"/>
	</defs>
	<clipPath id="SVGID_2_">
		<use xlink:href="#SVGID_1_"  overflow="visible"/>
	</clipPath>
	<g clip-path="url(#SVGID_2_)">
		<path fill="#FEE000" d="M212.397,77.62V46.707h-20.389V77.62h-19.184V-0.429h19.184v30.036h20.389V-0.429h19.184V77.62H212.397z"
			/>
		<path fill="#FEE000" d="M289.788,69.508c-5.7,5.7-12.277,8.77-21.814,8.77s-16.114-3.069-21.814-8.77
			c-8.221-8.221-7.893-19.183-7.893-30.913s-0.328-22.691,7.893-30.913c5.7-5.7,12.277-8.77,21.814-8.77s16.114,3.069,21.814,8.77
			c8.221,8.221,7.893,19.183,7.893,30.913S298.008,61.287,289.788,69.508z M275.647,19.412c-1.426-1.863-4.166-3.398-7.674-3.398
			s-6.248,1.535-7.674,3.398c-1.754,2.302-2.85,4.933-2.85,19.184s1.096,16.771,2.85,19.074c1.426,1.864,4.166,3.508,7.674,3.508
			s6.248-1.644,7.674-3.508c1.754-2.302,2.85-4.823,2.85-19.074S277.401,21.714,275.647,19.412z"/>
		<path fill="#FEE000" d="M338.129,16.671V77.62h-19.184V16.671h-19.184V-0.429h57.551v17.101H338.129z"/>
	</g>
</g>
<g>
</g>
<g>
</g>
<g>
</g>
<g>
</g>
<g>
</g>
<g>
</g>
</svg>
